<svg width="56" height="56" viewBox="0 0 56 56" fill="none" xmlns="http://www.w3.org/2000/svg">
<path d="M0 28C0 12.536 12.536 0 28 0C43.464 0 56 12.536 56 28C56 43.464 43.464 56 28 56C12.536 56 0 43.464 0 28Z" fill="#DBEAFE"/>
<path d="M28 39.6666C34.4434 39.6666 39.6667 34.4432 39.6667 27.9999C39.6667 21.5566 34.4434 16.3333 28 16.3333C21.5567 16.3333 16.3334 21.5566 16.3334 27.9999C16.3334 34.4432 21.5567 39.6666 28 39.6666Z" stroke="#155DFC" stroke-width="2.33333" stroke-linecap="round" stroke-linejoin="round"/>
<path d="M28 35C31.866 35 35 31.866 35 28C35 24.134 31.866 21 28 21C24.134 21 21 24.134 21 28C21 31.866 24.134 35 28 35Z" stroke="#155DFC" stroke-width="2.33333" stroke-linecap="round" stroke-linejoin="round"/>
<path d="M28 30.3334C29.2886 30.3334 30.3333 29.2887 30.3333 28.0001C30.3333 26.7114 29.2886 25.6667 28 25.6667C26.7113 25.6667 25.6666 26.7114 25.6666 28.0001C25.6666 29.2887 26.7113 30.3334 28 30.3334Z" stroke="#155DFC" stroke-width="2.33333" stroke-linecap="round" stroke-linejoin="round"/>
</svg>
