<svg width="56" height="56" viewBox="0 0 56 56" fill="none" xmlns="http://www.w3.org/2000/svg">
<path d="M0 28C0 12.536 12.536 0 28 0C43.464 0 56 12.536 56 28C56 43.464 43.464 56 28 56C12.536 56 0 43.464 0 28Z" fill="#DBEAFE"/>
<path d="M32.6666 38.5V36.1667C32.6666 34.929 32.1749 33.742 31.2998 32.8668C30.4246 31.9917 29.2376 31.5 27.9999 31.5H20.9999C19.7622 31.5 18.5753 31.9917 17.7001 32.8668C16.8249 33.742 16.3333 34.929 16.3333 36.1667V38.5" stroke="#155DFC" stroke-width="2.33333" stroke-linecap="round" stroke-linejoin="round"/>
<path d="M32.6667 17.6492C33.6675 17.9086 34.5537 18.493 35.1864 19.3106C35.819 20.1282 36.1623 21.1327 36.1623 22.1665C36.1623 23.2003 35.819 24.2048 35.1864 25.0224C34.5537 25.84 33.6675 26.4244 32.6667 26.6838" stroke="#155DFC" stroke-width="2.33333" stroke-linecap="round" stroke-linejoin="round"/>
<path d="M39.6667 38.4999V36.1666C39.666 35.1326 39.3218 34.1282 38.6883 33.311C38.0549 32.4938 37.1679 31.9101 36.1667 31.6516" stroke="#155DFC" stroke-width="2.33333" stroke-linecap="round" stroke-linejoin="round"/>
<path d="M24.4999 26.8333C27.0772 26.8333 29.1666 24.744 29.1666 22.1667C29.1666 19.5893 27.0772 17.5 24.4999 17.5C21.9226 17.5 19.8333 19.5893 19.8333 22.1667C19.8333 24.744 21.9226 26.8333 24.4999 26.8333Z" stroke="#155DFC" stroke-width="2.33333" stroke-linecap="round" stroke-linejoin="round"/>
</svg>
