<svg width="56" height="56" viewBox="0 0 56 56" fill="none" xmlns="http://www.w3.org/2000/svg">
<path d="M0 28C0 12.536 12.536 0 28 0C43.464 0 56 12.536 56 28C56 43.464 43.464 56 28 56C12.536 56 0 43.464 0 28Z" fill="#DBEAFE"/>
<path d="M37.3334 29.1666C37.3334 35 33.2501 37.9166 28.3967 39.6083C28.1426 39.6944 27.8665 39.6903 27.6151 39.5966C22.7501 37.9166 18.6667 35 18.6667 29.1666V21C18.6667 20.6905 18.7897 20.3938 19.0085 20.175C19.2272 19.9562 19.524 19.8333 19.8334 19.8333C22.1667 19.8333 25.0834 18.4333 27.1134 16.66C27.3606 16.4488 27.675 16.3328 28.0001 16.3328C28.3252 16.3328 28.6396 16.4488 28.8867 16.66C30.9284 18.445 33.8334 19.8333 36.1667 19.8333C36.4762 19.8333 36.7729 19.9562 36.9917 20.175C37.2105 20.3938 37.3334 20.6905 37.3334 21V29.1666Z" stroke="#155DFC" stroke-width="2.33333" stroke-linecap="round" stroke-linejoin="round"/>
</svg>
