<svg width="312" height="39" viewBox="0 0 312 39" fill="none" xmlns="http://www.w3.org/2000/svg">
<path fill-rule="evenodd" clip-rule="evenodd" d="M14.7666 0.485478C18.6833 0.485478 22.1061 1.29461 25.0348 2.91286C27.9987 4.49513 30.2745 6.7247 31.8623 9.60152C33.4501 12.4784 34.244 15.769 34.244 19.473C34.244 23.1409 33.4326 26.4135 31.8096 29.2903C30.2218 32.1672 27.9457 34.4329 24.9817 36.0871C22.0531 37.7054 18.648 38.5145 14.7666 38.5145H1.05855C0.473929 38.5145 0 38.0315 0 37.4357V1.56432C0 0.968489 0.473929 0.485478 1.05855 0.485478H14.7666ZM10.8195 11.6335C9.43746 11.6336 8.67342 13.2884 9.54384 14.3966L12.7491 18.477C13.238 19.0994 13.238 19.9902 12.7491 20.6126L9.54384 24.6933C8.67341 25.8015 9.43741 27.4564 10.8195 27.4564H15.7046C16.1997 27.4564 16.6684 27.2258 16.9802 26.8289L21.8629 20.6126C22.3518 19.9902 22.3518 19.0994 21.8629 18.477L16.9802 12.261C16.6684 11.8641 16.1997 11.6335 15.7046 11.6335H10.8195Z" fill="#003956"/>
<path d="M50.9691 8.95436C50.3845 8.95436 49.9106 9.43737 49.9106 10.0332V14.0788C49.9106 14.6747 50.3845 15.1577 50.9691 15.1577H60.7607C61.3453 15.1577 61.8193 15.6407 61.8193 16.2365V22.1162C61.8193 22.712 61.3453 23.195 60.7607 23.195H50.9691C50.3845 23.195 49.9106 23.678 49.9106 24.2739V28.9668C49.9106 29.5626 50.3845 30.0456 50.9691 30.0456H62.3485C62.9332 30.0456 63.4071 30.5287 63.4071 31.1245V37.4357C63.4071 38.0315 62.9332 38.5145 62.3485 38.5145H40.5953C40.0107 38.5145 39.5368 38.0315 39.5368 37.4357V1.56431C39.5368 0.968488 40.0107 0.485477 40.5953 0.485477H62.3485C62.9332 0.485477 63.4071 0.968489 63.4071 1.56431V7.87552C63.4071 8.47134 62.9332 8.95436 62.3485 8.95436H50.9691Z" fill="#003956"/>
<path d="M83.89 39C79.55 39 75.9862 37.9571 73.1987 35.8714C70.6865 33.9592 69.2204 31.3169 68.8003 27.9444C68.7238 27.3302 69.2108 26.8091 69.8183 26.8091H78.7855C79.337 26.8091 79.7827 27.2446 79.9056 27.7925C80.0935 28.6297 80.4336 29.2729 80.9261 29.722C81.5965 30.3333 82.461 30.639 83.5196 30.639C84.4722 30.639 85.2485 30.4053 85.8484 29.9378C86.4835 29.4343 86.8011 28.751 86.8011 27.888C86.8011 26.7732 86.2894 25.9101 85.2662 25.2988C84.2429 24.6874 82.5845 24.0041 80.291 23.249C77.8563 22.4219 75.8803 21.6307 74.3631 20.8755C72.8811 20.0844 71.5756 18.9516 70.4465 17.4772C69.3526 15.9668 68.8057 14.0069 68.8057 11.5975C68.8057 9.15214 69.4055 7.06639 70.6052 5.34025C71.8049 3.57815 73.4633 2.24758 75.5804 1.34855C77.6975 0.449515 80.0969 0 82.7786 0C87.1186 0 90.5766 1.04288 93.1524 3.12863C95.4947 4.96741 96.8574 7.48624 97.2404 10.6851C97.3137 11.2968 96.8276 11.8133 96.223 11.8133H87.0861C86.5143 11.8133 86.0663 11.3432 85.9241 10.7788C85.7607 10.13 85.4532 9.61172 85.0015 9.22407C84.3664 8.64869 83.5372 8.36099 82.5139 8.36099C81.7377 8.36099 81.1025 8.59474 80.6085 9.06224C80.1145 9.52974 79.8676 10.195 79.8676 11.0581C79.8676 11.7773 80.1322 12.4066 80.6615 12.9461C81.226 13.4495 81.9141 13.899 82.7256 14.2946C83.5372 14.6542 84.7369 15.1217 86.3247 15.6971C88.6888 16.5242 90.6295 17.3513 92.1467 18.1784C93.6993 18.9696 95.0225 20.1024 96.1163 21.5768C97.2454 23.0152 97.81 24.8492 97.81 27.0788C97.81 29.3444 97.2454 31.3762 96.1163 33.1743C95.0225 34.9723 93.417 36.3928 91.2999 37.4357C89.2181 38.4786 86.7481 39 83.89 39Z" fill="#003956"/>
<path d="M135.441 0.485477C136.026 0.485477 136.5 0.968489 136.5 1.56431V37.4357C136.5 38.0315 136.026 38.5145 135.441 38.5145H127.185C126.6 38.5145 126.126 38.0315 126.126 37.4357V24.3278C126.126 23.732 125.652 23.249 125.068 23.249H114.535C113.95 23.249 113.477 23.732 113.477 24.3278V37.4357C113.477 38.0315 113.003 38.5145 112.418 38.5145H104.161C103.577 38.5145 103.103 38.0315 103.103 37.4357V1.56431C103.103 0.968488 103.577 0.485477 104.161 0.485477H112.418C113.003 0.485477 113.477 0.968489 113.477 1.56431V13.7012C113.477 14.2971 113.95 14.7801 114.535 14.7801H125.068C125.652 14.7801 126.126 14.2971 126.126 13.7012V1.56431C126.126 0.968489 126.6 0.485477 127.185 0.485477H135.441Z" fill="#003956"/>
<path d="M185.306 0C185.888 0 186.36 0.495344 186.36 1.10638V37.8936C186.36 38.5046 185.888 39 185.306 39H177.087C176.505 39 176.033 38.5046 176.033 37.8936V24.1367C176.033 22.8865 174.368 22.5958 173.983 23.7787L169.27 38.2515C169.124 38.6992 168.723 39 168.273 39H161.139C160.689 39 160.288 38.6991 160.142 38.2515L155.377 23.614C154.992 22.431 153.326 22.7217 153.326 23.9719V37.8936C153.326 38.5046 152.854 39 152.273 39H144.054C143.472 39 143 38.5046 143 37.8936V1.10638C143 0.495343 143.472 0 144.054 0H154.764C155.199 0 155.59 0.281149 155.747 0.707554L163.817 22.6352C164.166 23.5825 165.444 23.5774 165.786 22.6273L173.669 0.71543C173.823 0.284899 174.216 0 174.654 0H185.306Z" fill="#F77B1D"/>
<path d="M200.901 0C201.482 0 201.954 0.495344 201.954 1.10638V37.8936C201.954 38.5046 201.482 39 200.901 39H192.682C192.1 39 191.628 38.5046 191.628 37.8936V1.10638C191.628 0.495343 192.1 0 192.682 0H200.901Z" fill="#F77B1D"/>
<path d="M236.199 0C236.781 0 237.253 0.495344 237.253 1.10638V7.5234C237.253 8.13444 236.781 8.62978 236.199 8.62978H228.402C227.82 8.62978 227.348 9.12512 227.348 9.73616V37.8936C227.348 38.5046 226.876 39 226.295 39H218.076C217.494 39 217.022 38.5046 217.022 37.8936V9.73616C217.022 9.12512 216.55 8.62978 215.968 8.62978H208.276C207.694 8.62978 207.223 8.13444 207.223 7.5234V1.10638C207.223 0.495343 207.694 0 208.276 0H236.199Z" fill="#F77B1D"/>
<path d="M261.959 39C261.572 39 261.215 38.7765 261.031 38.4181L254.15 24.9995C254.029 24.7639 253.795 24.617 253.54 24.617C253.158 24.617 252.848 24.9426 252.848 25.3443V37.8936C252.848 38.5046 252.376 39 251.794 39H243.575C242.993 39 242.521 38.5046 242.521 37.8936V1.10638C242.521 0.495343 242.993 0 243.575 0H258.801C261.786 0 264.315 0.553193 266.388 1.65958C268.46 2.72908 270.023 4.22269 271.077 6.14042C272.13 8.02127 272.657 10.1418 272.657 12.5021C272.657 15.1574 271.955 17.4993 270.55 19.5276C269.403 21.1942 267.802 22.4605 265.746 23.3264C265.115 23.5918 264.816 24.3783 265.156 24.9956L271.954 37.3398C272.36 38.0774 271.853 39 271.041 39H261.959ZM252.848 16.0979C252.848 16.7089 253.319 17.2042 253.901 17.2042H257.958C259.363 17.2042 260.417 16.8539 261.119 16.1532C261.822 15.4525 262.173 14.4383 262.173 13.1106C262.173 11.8567 261.804 10.8794 261.066 10.1787C260.364 9.44113 259.328 9.07234 257.958 9.07234H253.901C253.319 9.07234 252.848 9.56768 252.848 10.1787V16.0979Z" fill="#F77B1D"/>
<path d="M300.939 2.73018L300.316 0.758134C300.173 0.305539 299.77 3.25949e-05 299.316 3.25949e-05H291.226C290.772 3.25949e-05 290.369 0.305407 290.226 0.757862L278.596 37.5451C278.37 38.2612 278.878 39 279.596 39H286.047C286.509 39 286.917 38.684 287.053 38.2206L292.767 18.8285C291.562 16.8286 290.732 13.2655 292.645 7.17033L293.396 4.77779L295.143 6.34836C295.303 6.4878 298.489 9.45279 297.928 16.1681C298.445 15.7901 298.983 15.4342 299.544 15.0966C298.396 13.17 297.316 9.22895 300.939 2.73018ZM308.664 27.1657L307.344 22.9898C306.741 23.1072 306.081 23.1732 305.363 23.1732C303.859 23.1732 302.24 22.876 300.554 22.2889L300.006 22.0981C299.656 22.454 299.31 22.832 298.974 23.2356L298.993 23.3017C299.377 23.2466 299.788 23.2173 300.224 23.2173C301.891 23.2173 303.792 23.654 305.875 24.509L307.966 25.3713L306.594 27.3712C306.517 27.485 304.821 29.8885 301.112 30.4903L301.554 31.9875L303.389 38.2204C303.526 38.6839 303.934 39 304.396 39H310.945C311.664 39 312.172 38.2612 311.946 37.5451L308.664 27.1657Z" fill="#F77B1D"/>
<path d="M305.334 26.2371C305.334 26.2371 302.429 30.4681 295.168 28.0499C295.168 28.0499 296.883 22.7584 305.334 26.2371Z" fill="#059246"/>
<path d="M294.152 7.79036C294.152 7.79036 297.848 11.115 295.739 19.4265C295.739 19.4265 291.116 17.4633 294.152 7.79036Z" fill="#059246"/>
<path d="M302.532 3.28793C302.532 3.28793 305.423 7.52626 301.638 15.0195C301.638 15.0195 297.563 11.8453 302.532 3.28793Z" fill="#059246"/>
<path d="M311.2 18.8613C311.2 18.8613 308.254 23.052 301.019 20.5347C301.019 20.5347 302.788 15.2689 311.2 18.8613Z" fill="#059246"/>
<path d="M295.716 38.9999C295.716 38.9999 292.604 37.1138 291.87 31.2425C291.139 25.3712 295.168 19.0816 302.128 15.724C305.074 14.3039 306.805 12.5462 307.824 10.9903C307.122 9.8784 305.946 6.7446 309.847 1.27697C309.847 1.27697 312.223 7.49319 308.62 11.0563C307.901 13.0049 306.424 15.3313 303.41 17.1918C297.852 20.6265 290.77 28.0977 295.716 38.9999Z" fill="#059246"/>
<path d="M295.499 27.3894C295.258 27.7747 295.168 28.0499 295.168 28.0499C302.429 30.4681 305.334 26.2371 305.334 26.2371C305.122 26.149 304.914 26.0684 304.709 25.9913C303.635 27.0225 300.766 28.9857 295.499 27.3894Z" fill="#059246"/>
<path d="M295.739 19.4265C296.531 16.3037 296.505 13.8855 296.162 12.0801C296.37 13.7791 296.294 15.9405 295.614 18.6229C295.614 18.6229 293.787 17.845 293.184 14.8616C293.588 18.5128 295.739 19.4265 295.739 19.4265Z" fill="#059246"/>
<path d="M301.638 15.0195C303.776 10.7848 303.786 7.59208 303.385 5.61419C303.622 7.61042 303.382 10.5167 301.513 14.2156C301.513 14.2156 300.503 13.4303 300.102 11.5809C300.339 14.0064 301.638 15.0195 301.638 15.0195Z" fill="#059246"/>
<path d="M310.575 18.6081C309.495 19.6209 306.606 21.5474 301.352 19.8814C301.112 20.263 301.019 20.5347 301.019 20.5347C308.254 23.052 311.2 18.8613 311.2 18.8613C310.989 18.7696 310.78 18.6851 310.575 18.6081Z" fill="#059246"/>
<path d="M307.699 10.1866C307.504 9.87473 307.27 9.40504 307.119 8.7702C307.177 9.46375 307.344 10.0142 307.53 10.4362C307.59 10.3518 307.645 10.271 307.699 10.1866Z" fill="#059246"/>
<path d="M302.167 18.0136C302.442 17.8191 302.711 17.6357 302.981 17.4632C303.125 17.3714 303.269 17.2799 303.41 17.1918C306.424 15.3313 307.901 13.0049 308.62 11.0563C310.886 8.81423 310.787 5.5188 310.399 3.3868C310.652 5.48211 310.495 8.27463 308.495 10.2525C307.777 12.2011 306.299 14.5275 303.285 16.388C298.518 19.3347 292.63 25.25 294.175 33.7523C293.219 26.3912 297.845 21.0593 302.167 18.0136Z" fill="#059246"/>
<path d="M308.664 27.1657C306.359 31.1949 303.208 31.9141 301.554 31.9875L301.112 30.4903C304.821 29.8885 306.517 27.485 306.594 27.3712L307.966 25.3713L305.875 24.509C303.792 23.654 301.891 23.2173 300.224 23.2173C299.788 23.2173 299.377 23.2466 298.993 23.3017L298.974 23.2356C299.31 22.832 299.656 22.454 300.006 22.0981L300.554 22.2889C302.24 22.876 303.859 23.1732 305.363 23.1732C306.081 23.1732 306.741 23.1072 307.344 22.9898L308.664 27.1657Z" fill="#D1D3D4"/>
</svg>
