<?xml version="1.0" encoding="UTF-8"?>
<svg version="1.1" xmlns="http://www.w3.org/2000/svg" width="1701" height="1869">
<path d="M0 0 C1.22625658 -0.0095088 2.45251316 -0.01901761 3.71592903 -0.02881455 C7.10387684 -0.04798046 10.48905771 -0.03590887 13.87678623 -0.01032734 C17.53606766 0.00967467 21.19515784 -0.01077693 24.85443115 -0.02603149 C32.01643002 -0.04942495 39.17788435 -0.03531838 46.3398509 -0.00809297 C54.68374666 0.02242658 63.02751012 0.01753482 71.37144589 0.01167962 C86.26125037 0.00261565 101.15079503 0.02842905 116.04052734 0.07269287 C130.48202449 0.11561638 144.92319322 0.1297842 159.36474609 0.1137085 C175.09835065 0.09623295 190.83180646 0.09450078 206.56540489 0.12029243 C208.24377822 0.12302549 209.92215155 0.12575184 211.6005249 0.12847137 C212.42627238 0.12983273 213.25201987 0.13119408 214.10279 0.13259669 C219.91606076 0.14121107 225.72926963 0.13897797 231.5425415 0.13282013 C238.62904251 0.12576405 245.71524285 0.13702001 252.80166864 0.17132798 C256.41593081 0.18841862 260.02974377 0.19765297 263.64403534 0.18519211 C267.56473899 0.17197078 271.48464578 0.1976008 275.40527344 0.22705078 C276.54379824 0.21726141 277.68232304 0.20747204 278.85534859 0.19738603 C285.75367916 0.2906177 290.36969267 1.36553359 295.70263672 5.87542725 C302.10120035 12.83127417 304.79564566 23.53913281 307.93338013 32.28521729 C308.98687435 35.22083214 310.05295156 38.15161228 311.12231445 41.08148193 C312.31404764 44.34678249 313.50503685 47.61233478 314.69261169 50.87915039 C320.02951254 65.55494224 325.47262676 80.19139362 330.91207504 94.82941437 C331.76931873 97.13668311 332.62612379 99.44411432 333.4828186 101.75158691 C340.09730713 119.56563679 346.74576595 137.36496534 353.54406738 155.10986328 C360.28504105 172.70860352 366.90293291 190.35301916 373.51513672 208.00042725 C374.09690277 209.55294827 374.67866953 211.10546902 375.26043701 212.6579895 C378.22309906 220.56463844 381.18479754 228.47164806 384.14599609 236.37884521 C389.56904201 250.85981217 394.99541316 265.33953257 400.42370224 279.81853485 C400.98557138 281.31723124 401.54742282 282.81593427 402.10925674 284.31464386 C410.61741277 307.01025326 419.15061616 329.69631277 427.70263672 352.37542725 C436.53748448 375.80457154 445.35088406 399.24163854 454.14013672 422.68792725 C454.41928295 423.43255344 454.69842918 424.17717964 454.98603439 424.94437027 C459.50898248 437.00951506 464.03038018 449.07524072 468.55158997 461.14103699 C472.78870253 472.4486098 477.02637407 483.75597287 481.26513672 495.06292725 C481.54436352 495.80779514 481.82359032 496.55266304 482.11127853 497.32010269 C490.61867553 520.01392416 499.15130091 542.69812866 507.70263672 565.37542725 C516.53748448 588.80457154 525.35088406 612.24163854 534.14013672 635.68792725 C534.55885607 636.80486654 534.55885607 636.80486654 534.98603439 637.94437027 C539.50898248 650.00951506 544.03038018 662.07524072 548.55158997 674.14103699 C552.78870253 685.4486098 557.02637407 696.75597287 561.26513672 708.06292725 C561.68397692 709.18022909 561.68397692 709.18022909 562.11127853 710.32010269 C570.61867553 733.01392416 579.15130091 755.69812866 587.70263672 778.37542725 C596.53748448 801.80457154 605.35088406 825.24163854 614.14013672 848.68792725 C614.55885607 849.80486654 614.55885607 849.80486654 614.98603439 850.94437027 C619.50898248 863.00951506 624.03038018 875.07524072 628.55158997 887.14103699 C632.78870253 898.4486098 637.02637407 909.75597287 641.26513672 921.06292725 C641.68397692 922.18022909 641.68397692 922.18022909 642.11127853 923.32010269 C650.61867553 946.01392416 659.15130091 968.69812866 667.70263672 991.37542725 C676.53748448 1014.80457154 685.35088406 1038.24163854 694.14013672 1061.68792725 C694.41928295 1062.43255344 694.69842918 1063.17717964 694.98603439 1063.94437027 C699.50898248 1076.00951506 704.03038018 1088.07524072 708.55158997 1100.14103699 C712.78870253 1111.4486098 717.02637407 1122.75597287 721.26513672 1134.06292725 C721.54436352 1134.80779514 721.82359032 1135.55266304 722.11127853 1136.32010269 C730.61867553 1159.01392416 739.15130091 1181.69812866 747.70263672 1204.37542725 C756.53748448 1227.80457154 765.35088406 1251.24163854 774.14013672 1274.68792725 C774.41928295 1275.43255344 774.69842918 1276.17717964 774.98603439 1276.94437027 C779.50898248 1289.00951506 784.03038018 1301.07524072 788.55158997 1313.14103699 C792.78870253 1324.4486098 797.02637407 1335.75597287 801.26513672 1347.06292725 C801.54436352 1347.80779514 801.82359032 1348.55266304 802.11127853 1349.32010269 C810.61867553 1372.01392416 819.15130091 1394.69812866 827.70263672 1417.37542725 C836.53748448 1440.80457154 845.35088406 1464.24163854 854.14013672 1487.68792725 C854.41928295 1488.43255344 854.69842918 1489.17717964 854.98603439 1489.94437027 C859.50898248 1502.00951506 864.03038018 1514.07524072 868.55158997 1526.14103699 C872.78870253 1537.4486098 877.02637407 1548.75597287 881.26513672 1560.06292725 C881.54436352 1560.80779514 881.82359032 1561.55266304 882.11127853 1562.32010269 C890.61867553 1585.01392416 899.15130091 1607.69812866 907.70263672 1630.37542725 C919.35462725 1661.27535612 930.95830387 1692.19325126 942.54649353 1723.11715698 C946.69079601 1734.17646422 950.83682574 1745.23512286 954.98388672 1756.293396 C955.28533159 1757.09721018 955.58677647 1757.90102436 955.89735603 1758.72919655 C957.39803051 1762.73077825 958.89873068 1766.73235032 960.39944458 1770.73391724 C963.24065469 1778.30987257 963.24065469 1778.30987257 964.6170702 1781.98074818 C965.15123047 1783.40501189 965.68561646 1784.82919098 966.22023296 1786.2532835 C967.51852887 1789.7124626 968.81304115 1793.17295679 970.09910583 1796.63670349 C972.42623049 1802.89246627 974.78505839 1809.12841122 977.28309917 1815.31827545 C978.42786038 1818.16121799 979.55139683 1821.01234548 980.67363167 1823.86424255 C981.20317047 1825.19266288 981.7427996 1826.51712029 982.29403496 1827.83668518 C985.37891326 1835.22749756 987.17659755 1841.95637059 987.27856445 1849.93597412 C987.29245996 1850.63863655 987.30635546 1851.34129898 987.32067204 1852.06525421 C987.21036394 1857.15002835 985.93150155 1860.00485156 982.70263672 1863.87542725 C982.27529956 1864.39272052 981.8479624 1864.91001379 981.40767562 1865.44298261 C977.76530198 1869.20022131 974.90118478 1870.30675291 969.67868137 1870.62209415 C967.22285382 1870.65116477 964.76650139 1870.64707578 962.3106842 1870.61714172 C960.9408994 1870.6219101 959.57112165 1870.629305 958.2013635 1870.63909096 C954.44695538 1870.65829193 950.69352105 1870.64016043 946.93917716 1870.61579812 C942.88659023 1870.59603398 938.83411024 1870.61091973 934.7815094 1870.6214447 C926.84605192 1870.63656017 918.91096989 1870.61965913 910.97555906 1870.5918938 C901.73284913 1870.56071879 892.49022007 1870.560953 883.24746745 1870.56241154 C866.75433596 1870.56391313 850.26137904 1870.53643747 833.76831055 1870.49285889 C817.76795267 1870.45060409 801.76774843 1870.42934632 785.76733398 1870.43133545 C784.28935362 1870.43151525 784.28935362 1870.43151525 782.78151507 1870.43169869 C781.30607924 1870.43188028 781.30607924 1870.43188028 779.80083662 1870.43206555 C761.5813014 1870.43413612 743.36183141 1870.41645798 725.14231734 1870.3896059 C718.70139835 1870.38056291 712.26049136 1870.37736792 705.81956673 1870.37600899 C697.96822053 1870.37396064 690.11698424 1870.36053985 682.26568467 1870.33301056 C678.26065467 1870.31917747 674.25576504 1870.31001231 670.25070953 1870.31379318 C666.58229033 1870.31708829 662.91418113 1870.30646303 659.24582653 1870.28484761 C657.2946086 1870.27686437 655.3433477 1870.28347047 653.39212662 1870.29064375 C645.56297151 1870.22580843 639.29703413 1869.80109956 633.01513672 1864.68792725 C627.75008629 1858.28448753 624.53358649 1851.51930049 621.69091797 1843.77386475 C621.32548386 1842.80111099 620.96004974 1841.82835724 620.58354187 1840.8261261 C619.79736623 1838.73121901 619.01499535 1836.63488084 618.23608398 1834.53726196 C616.1351268 1828.88140835 614.00468097 1823.23664849 611.87841797 1817.590271 C611.44473907 1816.43634354 611.01106018 1815.28241608 610.5642395 1814.09352112 C606.37454191 1802.96140286 602.05596699 1791.88187968 597.70263672 1780.81292725 C596.21520827 1777.02664529 594.72838208 1773.24012701 593.24169922 1769.45355225 C592.68667473 1768.04037468 592.68667473 1768.04037468 592.12043762 1766.59864807 C587.73857505 1755.43337362 583.40850687 1744.24805561 579.07763672 1733.06292725 C573.30576477 1718.15930853 567.51943896 1703.26156885 561.70263672 1688.37542725 C555.91044641 1673.55034913 550.1424085 1658.71604003 544.39013672 1643.87542725 C543.99394135 1642.85328125 543.59774597 1641.83113525 543.18954468 1640.77801514 C539.95357083 1632.42895799 536.71877005 1624.07944644 533.48400879 1615.72991943 C530.66159302 1608.44487876 527.83872495 1601.16001358 525.01513672 1593.87542725 C524.61869965 1592.85263672 524.22226257 1591.82984619 523.81381226 1590.77606201 C518.14123032 1576.14307815 512.44790677 1561.51833489 506.7355957 1546.90081787 C501.54843135 1533.62627981 496.39126674 1520.34029405 491.24456787 1507.05001831 C485.22227885 1491.49948922 479.18805377 1475.95407455 473.07763672 1460.43792725 C472.66597763 1459.39149048 472.66597763 1459.39149048 472.2460022 1458.32391357 C471.49051485 1456.4044287 470.73363767 1454.4854998 469.97607422 1452.5668335 C469.5576123 1451.50666016 469.13915039 1450.44648682 468.70800781 1449.35418701 C467.76193795 1446.92882327 467.76193795 1446.92882327 466.70263672 1444.87542725 C466.32494141 1445.50706787 465.94724609 1446.1387085 465.55810547 1446.78948975 C461.80955536 1452.88198102 457.69933569 1458.54983076 453.23779297 1464.12908936 C447.44368779 1471.39987583 441.98948859 1478.91746085 436.50097656 1486.41986084 C433.57743016 1490.4118551 430.63950665 1494.39323072 427.70263672 1498.37542725 C424.17677241 1503.15880214 420.65224731 1507.94314697 417.13232422 1512.730896 C411.66872788 1520.15920069 406.19032991 1527.57404132 400.64013672 1534.93792725 C396.48622508 1540.451051 392.41637094 1546.01846005 388.39013672 1551.62542725 C383.13971651 1558.93495961 377.774794 1566.15124162 372.36181641 1573.34100342 C366.32914316 1581.35745635 360.37675156 1589.43146276 354.43652344 1597.51654053 C351.52892051 1601.47222336 348.6155283 1605.42363817 345.70263672 1609.37542725 C342.17690735 1614.15890177 338.65224745 1618.94314678 335.13232422 1623.730896 C329.66872788 1631.15920069 324.19032991 1638.57404132 318.64013672 1645.93792725 C314.48622508 1651.451051 310.41637094 1657.01846005 306.39013672 1662.62542725 C301.13971651 1669.93495961 295.774794 1677.15124162 290.36181641 1684.34100342 C284.32914316 1692.35745635 278.37675156 1700.43146276 272.43652344 1708.51654053 C269.52892051 1712.47222336 266.6155283 1716.42363817 263.70263672 1720.37542725 C260.17690735 1725.15890177 256.65224745 1729.94314678 253.13232422 1734.730896 C247.66872788 1742.15920069 242.19032991 1749.57404132 236.64013672 1756.93792725 C232.48622508 1762.451051 228.41637094 1768.01846005 224.39013672 1773.62542725 C219.13971651 1780.93495961 213.774794 1788.15124162 208.36181641 1795.34100342 C202.32914316 1803.35745635 196.37675156 1811.43146276 190.43652344 1819.51654053 C187.52892047 1823.47222341 184.61550117 1827.42361812 181.70263672 1831.37542725 C178.10768902 1836.25345266 174.51348349 1841.13202069 170.92138672 1846.012146 C170.29876953 1846.857771 169.67615234 1847.703396 169.03466797 1848.574646 C167.85469281 1850.17729883 166.67498436 1851.78014808 165.49560547 1853.38323975 C164.4227742 1854.84013949 163.34734292 1856.295129 162.26904297 1857.74798584 C161.20054672 1859.19918228 160.14638399 1860.66101522 159.10498047 1862.1317749 C158.59064453 1862.84768799 158.07630859 1863.56360107 157.54638672 1864.3012085 C157.09457031 1864.94098633 156.64275391 1865.58076416 156.17724609 1866.2399292 C153.40281908 1869.31706274 151.08195895 1869.84471451 146.98779297 1870.1762085 C145.58031054 1870.19074587 144.1726796 1870.19434266 142.76513672 1870.18792725 C142.06195312 1870.20404053 141.35876953 1870.22015381 140.63427734 1870.23675537 C135.04126218 1870.24199718 131.98658389 1868.96403683 127.92138672 1865.246521 C120.85332862 1857.29495563 114.85641819 1848.53617336 108.70263672 1839.87542725 C101.19256086 1829.34664038 93.52401529 1818.96617752 85.65356445 1808.70355225 C80.77322294 1802.32405156 76.03099033 1795.85890524 71.3527832 1789.33026123 C67.88004716 1784.48887446 64.35133911 1779.69583568 60.76513672 1774.93792725 C54.60914852 1766.77061683 48.54293552 1758.53887027 42.48486328 1750.29876709 C39.56032931 1746.32220214 36.6313384 1742.34892317 33.70263672 1738.37542725 C30.17692388 1733.59194052 26.65224747 1728.80770774 23.13232422 1724.0199585 C17.68626777 1716.61523262 12.22805905 1709.22118359 6.70263672 1701.87542725 C0.57235151 1693.72553775 -5.47446587 1685.51520115 -11.51513672 1677.29876709 C-14.43967074 1673.32220206 -17.36871762 1669.34896453 -20.29736328 1665.37542725 C-21.46405216 1663.79211028 -22.63071882 1662.20877694 -23.79736328 1660.62542725 C-24.66361328 1659.44980225 -24.66361328 1659.44980225 -25.54736328 1658.25042725 C-44.79736329 1632.12542723 -44.79736329 1632.12542723 -46.54785156 1629.74969482 C-47.71280177 1628.16873742 -48.87784062 1626.58784533 -50.04296875 1625.00701904 C-52.98663308 1621.01286897 -55.92867674 1617.01754294 -58.86767578 1613.0199585 C-64.31373223 1605.61523262 -69.77194095 1598.22118359 -75.29736328 1590.87542725 C-81.42764849 1582.72553775 -87.47446587 1574.51520115 -93.51513672 1566.29876709 C-96.43967074 1562.32220206 -99.36871762 1558.34896453 -102.29736328 1554.37542725 C-103.46405216 1552.79211028 -104.63071882 1551.20877694 -105.79736328 1549.62542725 C-106.66361328 1548.44980225 -106.66361328 1548.44980225 -107.54736328 1547.25042725 C-126.79736328 1521.12542724 -126.79736328 1521.12542724 -128.546875 1518.75091553 C-129.71494726 1517.16579097 -130.88324196 1515.5808303 -132.05175781 1513.99603271 C-134.94875469 1510.06641094 -137.84197468 1506.13412372 -140.72705078 1502.19573975 C-146.85678445 1493.83732859 -153.05736951 1485.54201985 -159.35986328 1477.31292725 C-164.53139949 1470.54908908 -169.65647411 1463.75571697 -174.67236328 1456.87542725 C-175.2138501 1456.13993652 -175.75533691 1455.4044458 -176.31323242 1454.64666748 C-176.81072998 1453.9590332 -177.30822754 1453.27139893 -177.82080078 1452.56292725 C-178.25312012 1451.96866943 -178.68543945 1451.37441162 -179.13085938 1450.762146 C-180.49413169 1448.55717143 -181.39416484 1446.30065334 -182.29736328 1443.87542725 C-186.5078479 1453.51716602 -190.07548565 1463.35964844 -193.62268066 1473.25939941 C-195.48890103 1478.46600014 -197.36650947 1483.66849777 -199.24267578 1488.871521 C-199.64538696 1489.98899719 -200.04809814 1491.10647339 -200.4630127 1492.2578125 C-205.21443435 1505.43436125 -210.01286467 1518.59372857 -214.81731033 1531.75101089 C-215.54999078 1533.75762326 -216.28244429 1535.76431835 -217.01486206 1537.77102661 C-222.27619213 1552.18459546 -227.55394367 1566.59190212 -232.87158203 1580.98480225 C-233.31989883 1582.19826324 -233.76821564 1583.41172424 -234.2301178 1584.66195679 C-235.12343856 1587.0796565 -236.01677439 1589.49735065 -236.91012573 1591.91503906 C-237.34728912 1593.09821716 -237.78445251 1594.28139526 -238.23486328 1595.50042725 C-238.67114044 1596.68118835 -239.1074176 1597.86194946 -239.55691528 1599.07849121 C-245.64050601 1615.55356693 -251.60626314 1632.06562751 -257.45620728 1648.625 C-262.86429721 1663.92933435 -268.42090749 1679.1747763 -274.03939819 1694.40301514 C-280.3016519 1711.38118619 -286.46831564 1728.3925547 -292.59401321 1745.42033005 C-300.3913447 1767.09451714 -308.23646698 1788.74999894 -316.21630859 1810.35784912 C-316.929567 1812.28947414 -317.64278413 1814.22111441 -318.35595703 1816.152771 C-318.69648102 1817.07488373 -319.037005 1817.99699646 -319.3878479 1818.947052 C-321.5094696 1824.70369177 -323.5910469 1830.47324951 -325.64501953 1836.2543335 C-326.38586226 1838.32608565 -327.12747313 1840.39756125 -327.86929321 1842.46896362 C-328.51397877 1844.28156327 -329.14565674 1846.09877383 -329.77661133 1847.91619873 C-332.59329851 1855.77533032 -335.82409881 1864.29303317 -343.15175343 1869.01860714 C-348.26765771 1871.06157392 -354.1017424 1870.42017548 -359.53161621 1870.38336182 C-361.00507839 1870.38797193 -362.47853596 1870.39432559 -363.95198393 1870.40227079 C-367.9973313 1870.41897232 -372.04230132 1870.41071415 -376.08765006 1870.39832592 C-380.45173436 1870.38928108 -384.81575346 1870.40324234 -389.17982483 1870.41424561 C-397.7276025 1870.43204147 -406.27523976 1870.42818609 -414.82302296 1870.41659504 C-421.76935105 1870.40756519 -428.71563977 1870.40633478 -435.66197205 1870.41069031 C-437.14436007 1870.41160971 -437.14436007 1870.41160971 -438.65669534 1870.41254768 C-440.66426076 1870.41382657 -442.67182617 1870.41512342 -444.67939156 1870.41643804 C-463.50879657 1870.42784697 -482.3381237 1870.41472523 -501.16751593 1870.39323658 C-517.3275366 1870.37536532 -533.48744234 1870.37846934 -549.64746094 1870.39691162 C-568.40902299 1870.41831281 -587.17051678 1870.4267483 -605.93208933 1870.41446257 C-607.93231105 1870.41318836 -609.93253278 1870.41193087 -611.93275452 1870.41069031 C-612.91692768 1870.41007321 -613.90110085 1870.4094561 -614.91509745 1870.4088203 C-621.85389164 1870.40536515 -628.79264256 1870.41119931 -635.73143005 1870.42060852 C-644.18635846 1870.43182152 -652.6411383 1870.42880317 -661.09604967 1870.40748554 C-665.41073559 1870.3969657 -669.72517372 1870.39286913 -674.03985786 1870.40608215 C-677.9889086 1870.41799267 -681.93748164 1870.41146599 -685.88648897 1870.39017195 C-687.31574263 1870.38570015 -688.74503657 1870.38798517 -690.17426437 1870.3976751 C-703.37476952 1870.48031388 -703.37476952 1870.48031388 -708.29736328 1865.87542725 C-713.66345608 1860.54757264 -714.97262005 1856.16772235 -715.08007812 1848.64886475 C-714.78528502 1840.36171999 -711.74628053 1833.56165806 -708.47167969 1826.0458374 C-703.29594624 1814.14181036 -698.85009759 1802.01260186 -694.42236328 1789.81292725 C-692.8557742 1785.51386452 -691.28609633 1781.21593479 -689.71533203 1776.918396 C-689.14258797 1775.35062912 -689.14258797 1775.35062912 -688.55827332 1773.75119019 C-685.36026351 1765.01278627 -682.07815373 1756.3091535 -678.73486328 1747.62542725 C-678.47890381 1746.96015015 -678.22294434 1746.29487305 -677.95922852 1745.60943604 C-677.43669591 1744.25132495 -676.91414328 1742.89322157 -676.39157104 1741.53512573 C-676.1297403 1740.85465179 -675.86790955 1740.17417786 -675.59814453 1739.4730835 C-675.33462189 1738.78850067 -675.07109924 1738.10391785 -674.79959106 1737.39859009 C-671.30164419 1728.30145755 -667.86377171 1719.18156106 -664.42236328 1710.06292725 C-664.07322876 1709.13806519 -663.72409424 1708.21320313 -663.36437988 1707.26031494 C-660.67385886 1700.13259043 -657.98544853 1693.00407065 -655.29736328 1685.87542725 C-654.40299831 1683.50384389 -653.50862971 1681.1322619 -652.61425781 1678.76068115 C-648.75292206 1668.52136616 -644.89201584 1658.28188928 -641.03173828 1648.04217529 C-628.28653958 1614.23452468 -615.53150256 1580.43059164 -602.76095581 1546.63250732 C-596.99848557 1531.38157035 -591.2405101 1516.12894062 -585.48486328 1500.87542725 C-584.85963272 1499.21845825 -584.85963272 1499.21845825 -584.22177124 1497.52801514 C-581.24684877 1489.64386438 -578.27208808 1481.75965259 -575.29736328 1473.87542725 C-571.90164009 1464.87538568 -568.50584692 1455.87537054 -565.10986328 1446.87542725 C-564.69280121 1445.77013672 -564.27573914 1444.66484619 -563.84603882 1443.52606201 C-557.82170113 1427.56085883 -551.79322594 1411.59722348 -545.76177979 1395.63470459 C-539.99903643 1380.38303461 -534.24078625 1365.12967248 -528.48486328 1349.87542725 C-527.85963272 1348.21845825 -527.85963272 1348.21845825 -527.22177124 1346.52801514 C-524.24684877 1338.64386438 -521.27208808 1330.75965259 -518.29736328 1322.87542725 C-514.90164009 1313.87538568 -511.50584692 1304.87537054 -508.10986328 1295.87542725 C-507.69280121 1294.77013672 -507.27573914 1293.66484619 -506.84603882 1292.52606201 C-500.82170113 1276.56085883 -494.79322594 1260.59722348 -488.76177979 1244.63470459 C-482.99903643 1229.38303461 -477.24078625 1214.12967248 -471.48486328 1198.87542725 C-470.85963272 1197.21845825 -470.85963272 1197.21845825 -470.22177124 1195.52801514 C-467.24684877 1187.64386438 -464.27208808 1179.75965259 -461.29736328 1171.87542725 C-457.90164009 1162.87538568 -454.50584692 1153.87537054 -451.10986328 1144.87542725 C-450.69280121 1143.77013672 -450.27573914 1142.66484619 -449.84603882 1141.52606201 C-443.82170113 1125.56085883 -437.79322594 1109.59722348 -431.76177979 1093.63470459 C-425.99903643 1078.38303461 -420.24078625 1063.12967248 -414.48486328 1047.87542725 C-414.06804291 1046.77078125 -413.65122253 1045.66613525 -413.22177124 1044.52801514 C-410.24684877 1036.64386438 -407.27208808 1028.75965259 -404.29736328 1020.87542725 C-400.90164009 1011.87538568 -397.50584692 1002.87537054 -394.10986328 993.87542725 C-393.69280121 992.77013672 -393.27573914 991.66484619 -392.84603882 990.52606201 C-386.82170113 974.56085883 -380.79322594 958.59722348 -374.76177979 942.63470459 C-368.99903643 927.38303461 -363.24078625 912.12967248 -357.48486328 896.87542725 C-357.06804291 895.77078125 -356.65122253 894.66613525 -356.22177124 893.52801514 C-353.24684877 885.64386438 -350.27208808 877.75965259 -347.29736328 869.87542725 C-343.90164009 860.87538568 -340.50584692 851.87537054 -337.10986328 842.87542725 C-336.69280121 841.77013672 -336.27573914 840.66484619 -335.84603882 839.52606201 C-329.82170113 823.56085883 -323.79322594 807.59722348 -317.76177979 791.63470459 C-311.99903643 776.38303461 -306.24078625 761.12967248 -300.48486328 745.87542725 C-300.06804291 744.77078125 -299.65122253 743.66613525 -299.22177124 742.52801514 C-296.24684877 734.64386438 -293.27208808 726.75965259 -290.29736328 718.87542725 C-286.90164009 709.87538568 -283.50584692 700.87537054 -280.10986328 691.87542725 C-279.69280121 690.77013672 -279.27573914 689.66484619 -278.84603882 688.52606201 C-272.82170113 672.56085883 -266.79322594 656.59722348 -260.76177979 640.63470459 C-254.99903643 625.38303461 -249.24078625 610.12967248 -243.48486328 594.87542725 C-243.06804291 593.77078125 -242.65122253 592.66613525 -242.22177124 591.52801514 C-239.24684877 583.64386438 -236.27208808 575.75965259 -233.29736328 567.87542725 C-229.90164009 558.87538568 -226.50584692 549.87537054 -223.10986328 540.87542725 C-222.69280121 539.77013672 -222.27573914 538.66484619 -221.84603882 537.52606201 C-215.82170113 521.56085883 -209.79322594 505.59722348 -203.76177979 489.63470459 C-197.99903643 474.38303461 -192.24078625 459.12967248 -186.48486328 443.87542725 C-186.06804291 442.77078125 -185.65122253 441.66613525 -185.22177124 440.52801514 C-182.24684877 432.64386438 -179.27208808 424.75965259 -176.29736328 416.87542725 C-172.90164009 407.87538568 -169.50584692 398.87537054 -166.10986328 389.87542725 C-165.69280121 388.77013672 -165.27573914 387.66484619 -164.84603882 386.52606201 C-158.82170113 370.56085883 -152.79322594 354.59722348 -146.76177979 338.63470459 C-140.99903643 323.38303461 -135.24078625 308.12967248 -129.48486328 292.87542725 C-129.06804291 291.77078125 -128.65122253 290.66613525 -128.22177124 289.52801514 C-125.24684877 281.64386438 -122.27208808 273.75965259 -119.29736328 265.87542725 C-115.90164009 256.87538568 -112.50584692 247.87537054 -109.10986328 238.87542725 C-108.69280121 237.77013672 -108.27573914 236.66484619 -107.84603882 235.52606201 C-101.82170113 219.56085883 -95.79322594 203.59722348 -89.76177979 187.63470459 C-84.42070824 173.49903072 -79.08326246 159.36199183 -73.74841309 145.22396851 C-72.48516924 141.87623806 -71.22183667 138.52854111 -69.95849609 135.18084717 C-65.68537186 123.85712451 -61.41393205 112.53276962 -57.14501953 101.2074585 C-53.39203437 91.25091166 -49.63430643 81.2961668 -45.87236023 71.34300232 C-43.51570198 65.10640003 -41.16568747 58.86734978 -38.82116699 52.62617493 C-37.36719527 48.75930646 -35.90795347 44.89444182 -34.4473877 41.03005981 C-33.77673388 39.25229209 -33.10826915 37.47369661 -32.44226074 35.69418335 C-18.97249488 -0.28294467 -18.97249488 -0.28294467 0 0 Z M117.01513672 618.31292725 C109.33936812 628.15975968 106.16488415 641.83730802 102.09057617 653.48947144 C95.77856937 671.52830562 89.31858084 689.50846339 82.70263672 707.43792725 C81.18799916 711.54458212 79.67361503 715.65133026 78.15966797 719.75823975 C77.78684692 720.76954956 77.41402588 721.78085937 77.02990723 722.82281494 C73.10832387 733.47113644 69.24402662 744.13995264 65.39013672 754.81292725 C65.0487265 755.75813232 64.70731628 756.7033374 64.3555603 757.67718506 C62.57443371 762.6085876 60.79410232 767.54027677 59.01416016 772.47210693 C54.91375133 783.83235746 50.8080508 795.1906949 46.69898605 806.54781723 C46.24264886 807.80910016 45.78634247 809.07039423 45.33006668 810.33169937 C39.61763889 826.12231198 33.86898686 841.89805996 28.03335571 857.64352417 C21.71027104 874.71986036 15.58413972 891.86718427 9.4380455 909.00776291 C3.56646531 925.38215148 -2.30999668 941.75331973 -8.35986328 958.06292725 C-14.35843527 974.23432808 -20.2076154 990.45868791 -26.04736328 1006.68792725 C-32.73520376 1025.27359838 -39.4628055 1043.84305297 -46.29736328 1062.37542725 C-53.04730268 1080.67905476 -59.69280014 1099.01898875 -66.29736328 1117.37542725 C-73.00683327 1136.02319985 -79.75793758 1154.65438593 -86.60986328 1173.25042725 C-92.3450646 1188.81677178 -98.0386973 1204.39703183 -103.67236328 1220.00042725 C-104.37230454 1221.93858187 -105.07225575 1223.87673289 -105.7722168 1225.81488037 C-106.12177933 1226.78280518 -106.47134186 1227.75072998 -106.83149719 1228.74798584 C-107.18374863 1229.72332275 -107.53600006 1230.69865967 -107.89892578 1231.70355225 C-108.25395676 1232.68662354 -108.60898773 1233.66969482 -108.97477722 1234.68255615 C-113.3195067 1246.70982594 -117.68012573 1258.73131388 -122.04736328 1270.75042725 C-122.46106171 1271.8892334 -122.87476013 1273.02803955 -123.30099487 1274.20135498 C-128.09435116 1287.39113825 -132.9138657 1300.57088284 -137.77783203 1313.73480225 C-138.23096771 1314.96118912 -138.68410339 1316.18757599 -139.15097046 1317.4511261 C-140.96116394 1322.34935727 -142.77158057 1327.24750578 -144.5826416 1332.14541626 C-150.21418866 1347.38409171 -155.7459218 1362.6491982 -161.05471802 1378.00335693 C-163.90655023 1386.24792942 -166.85833827 1394.43869283 -170.00830078 1402.574646 C-170.31624573 1403.37085861 -170.62419067 1404.16707123 -170.94146729 1404.9874115 C-172.42046556 1408.80155044 -173.91333352 1412.60953715 -175.42626953 1416.41033936 C-175.95372902 1417.75542744 -176.48107908 1419.10055844 -177.00830078 1420.44573975 C-177.70898682 1422.20555176 -177.70898682 1422.20555176 -178.42382812 1424.00091553 C-179.60894864 1426.90467974 -179.60894864 1426.90467974 -178.29736328 1429.87542725 C-177.41048828 1429.40105225 -176.52361328 1428.92667725 -175.60986328 1428.43792725 C-171.27269936 1426.39209521 -167.47398001 1425.75072822 -162.70896733 1425.74892741 C-161.81080577 1425.74616767 -160.91264422 1425.74340793 -159.98726565 1425.74056455 C-159.00770747 1425.74261987 -158.0281493 1425.74467519 -157.01890755 1425.74679279 C-155.96844382 1425.74503976 -154.91798009 1425.74328672 -153.83568412 1425.74148056 C-150.29230873 1425.73680404 -146.74897407 1425.73929031 -143.20559692 1425.74171448 C-140.64889393 1425.73984734 -138.09219122 1425.73754703 -135.53548896 1425.73484915 C-129.96458654 1425.72969193 -124.39369281 1425.72827851 -118.82278824 1425.72930527 C-110.53865772 1425.73082837 -102.25453685 1425.72667251 -93.9704082 1425.72143064 C-78.3152856 1425.71175168 -62.66016626 1425.7089462 -47.00504102 1425.70837358 C-34.91759427 1425.70791435 -22.83014881 1425.7058576 -10.74270248 1425.70267296 C-7.26552864 1425.70177544 -3.7883548 1425.70088563 -0.31118095 1425.69999808 C0.98540538 1425.69966651 0.98540538 1425.69966651 2.30818536 1425.69932824 C26.62695477 1425.69317272 50.94572373 1425.68922781 75.26449394 1425.68967152 C76.64024407 1425.68969488 76.64024407 1425.68969488 78.04378713 1425.68971872 C82.69255781 1425.68980183 87.34132849 1425.68990088 91.99009918 1425.69000343 C93.37503795 1425.69003335 93.37503795 1425.69003335 94.78795527 1425.69006387 C96.65507789 1425.69010431 98.52220051 1425.69014611 100.38932312 1425.69018926 C129.44510063 1425.69080215 158.50086646 1425.68329349 187.55664062 1425.6696167 C220.1867406 1425.65426384 252.81683291 1425.64564998 285.44693673 1425.64657992 C288.92473928 1425.64665455 292.40254184 1425.64670326 295.88034439 1425.64673424 C297.16486764 1425.64675172 297.16486764 1425.64675172 298.47534086 1425.64676955 C312.26962215 1425.64680036 326.06389332 1425.64040842 339.8581716 1425.63180197 C353.7157735 1425.62333469 367.57336057 1425.62232829 381.43096362 1425.62891129 C389.66791257 1425.63261304 397.90481655 1425.63075598 406.14176075 1425.62096895 C412.28560562 1425.61428448 418.42940224 1425.61800527 424.57324483 1425.62584218 C427.06378247 1425.627387 429.55432494 1425.6255244 432.04485689 1425.6199821 C435.42081846 1425.61296469 438.79654533 1425.61818217 442.1724987 1425.62653828 C443.14737454 1425.6215701 444.12225038 1425.61660192 445.12666792 1425.61148319 C451.13064474 1425.64306507 456.25101391 1426.14961584 461.70263672 1428.87542725 C459.87767627 1421.68354159 457.67858035 1414.82462558 454.88623047 1407.95355225 C454.51792114 1407.03212433 454.14961182 1406.11069641 453.7701416 1405.16134644 C452.97809901 1403.18068275 452.1835453 1401.20102168 451.38668823 1399.22229004 C449.22809922 1393.85961233 447.09056843 1388.48855438 444.95263672 1383.11761475 C444.5129808 1382.01394562 444.07332489 1380.91027649 443.62034607 1379.77316284 C439.19318075 1368.63705359 434.90509662 1357.44945029 430.64013672 1346.25042725 C424.75286664 1330.80539481 418.80257779 1315.38740584 412.76513672 1300.00042725 C406.50104414 1284.0346574 400.27106931 1268.05624951 394.07763672 1252.06292725 C388.30558008 1237.15938042 382.51961894 1222.26149891 376.70263672 1207.37542725 C370.43588485 1191.33780387 364.20470479 1175.2865769 357.984375 1159.230896 C352.57584657 1145.27172097 347.15108675 1131.31906763 341.70263672 1117.37542725 C335.43595603 1101.33777591 329.20470489 1085.28657715 322.984375 1069.230896 C317.57584634 1055.27172039 312.15091826 1041.31913379 306.70263672 1027.37542725 C300.91051236 1012.55032323 295.14240859 997.71604026 289.39013672 982.87542725 C288.99394135 981.85328125 288.59774597 980.83113525 288.18954468 979.77801514 C284.95357083 971.42895799 281.71877005 963.07944644 278.48400879 954.72991943 C275.66159302 947.44487876 272.83872495 940.16001358 270.01513672 932.87542725 C269.61869965 931.85263672 269.22226257 930.82984619 268.81381226 929.77606201 C263.14019312 915.1404026 257.44527991 900.51320397 251.73257446 885.89276123 C245.78989509 870.68242739 239.88372651 855.45807986 233.984375 840.230896 C228.57584657 826.27172097 223.15108675 812.31906763 217.70263672 798.37542725 C211.43595603 782.33777591 205.20470489 766.28657715 198.984375 750.230896 C192.94044033 734.63176529 186.87390526 719.04167771 180.78100586 703.46160889 C177.07542686 693.98162842 173.3929797 684.49304033 169.72998047 674.996521 C168.87521502 672.78295915 168.02039743 670.56941744 167.16552734 668.355896 C165.91964476 665.1298264 164.6748868 661.90335203 163.43432617 658.67523193 C159.72721479 649.02888601 156.01824554 639.38320635 151.95654297 629.8793335 C151.1899939 628.08411255 151.1899939 628.08411255 150.40795898 626.25262451 C147.51765502 620.52870543 144.15524185 614.56434643 137.89013672 612.18792725 C129.59438972 611.00282053 122.89974561 612.17302079 117.01513672 618.31292725 Z " fill="#6A82FE" transform="translate(714.29736328125,-0.87542724609375)"/>
<path d="M0 0 C0.89816155 -0.00275974 1.79632311 -0.00551949 2.72170168 -0.00836286 C3.70125985 -0.00630754 4.68081803 -0.00425222 5.69005978 -0.00213462 C6.74052351 -0.00388766 7.79098724 -0.0056407 8.87328321 -0.00744686 C12.4166586 -0.01212337 15.95999326 -0.0096371 19.5033704 -0.00721294 C22.0600734 -0.00908007 24.61677611 -0.01138039 27.17347836 -0.01407826 C32.74438079 -0.01923549 38.31527452 -0.0206489 43.88617909 -0.01962215 C52.17030961 -0.01809904 60.45443048 -0.02225491 68.73855912 -0.02749677 C84.39368173 -0.03717573 100.04880107 -0.03998121 115.70392631 -0.04055383 C127.79137306 -0.04101307 139.87881852 -0.04306982 151.96626484 -0.04625446 C155.44343869 -0.04715197 158.92061253 -0.04804179 162.39778638 -0.04892933 C163.6943727 -0.04926091 163.6943727 -0.04926091 165.01715269 -0.04959918 C189.3359221 -0.0557547 213.65469105 -0.0596996 237.97346127 -0.0592559 C239.3492114 -0.05923253 239.3492114 -0.05923253 240.75275446 -0.05920869 C245.40152514 -0.05912558 250.05029582 -0.05902654 254.6990665 -0.05892398 C256.08400527 -0.05889406 256.08400527 -0.05889406 257.4969226 -0.05886354 C259.36404522 -0.05882311 261.23116784 -0.05878131 263.09829045 -0.05873815 C292.15406795 -0.05812526 321.20983379 -0.06563393 350.26560795 -0.07931072 C382.89570793 -0.09466357 415.52580024 -0.10327743 448.15590405 -0.10234749 C451.63370661 -0.10227286 455.11150916 -0.10222415 458.58931172 -0.10219318 C459.87383497 -0.1021757 459.87383497 -0.1021757 461.18430819 -0.10215786 C474.97858947 -0.10212706 488.77286065 -0.108519 502.56713893 -0.11712544 C516.42474083 -0.12559273 530.2823279 -0.12659913 544.13993095 -0.12001612 C552.3768799 -0.11631437 560.61378387 -0.11817143 568.85072808 -0.12795846 C574.99457295 -0.13464293 581.13836957 -0.13092214 587.28221215 -0.12308524 C589.7727498 -0.12154042 592.26329226 -0.12340301 594.75382422 -0.12894531 C598.12978579 -0.13596272 601.50551266 -0.13074524 604.88146603 -0.12238914 C605.85634187 -0.12735732 606.83121771 -0.1323255 607.83563524 -0.13744423 C613.07523144 -0.10988311 617.49257382 0.25404473 622.41160405 2.12649983 C624.72410405 4.56399983 624.72410405 4.56399983 626.41160405 7.12649983 C627.07160405 8.11649983 627.73160405 9.10649983 628.41160405 10.12649983 C629.8017374 14.5354435 630.13510269 18.43072056 628.2983228 22.73587483 C624.65503947 28.61382121 620.25760416 33.98365788 615.94700444 39.38260335 C610.14801485 46.64858478 604.69797037 54.16919714 599.20994389 61.67093343 C596.28639749 65.66292768 593.34847398 69.64430331 590.41160405 73.62649983 C586.88573973 78.40987473 583.36121464 83.19421956 579.84129155 87.98196858 C574.3776952 95.41027327 568.89929724 102.82511391 563.34910405 110.18899983 C559.19519241 115.70212358 555.12533827 121.26953263 551.09910405 126.87649983 C545.84868384 134.1860322 540.48376133 141.40231421 535.07078373 148.592076 C529.03811049 156.60852893 523.08571888 164.68253535 517.14549077 172.76761311 C514.23788784 176.72329595 511.32449563 180.67471076 508.41160405 184.62649983 C504.88587468 189.40997436 501.36121478 194.19421937 497.84129155 198.98196858 C492.3776952 206.41027327 486.89929724 213.82511391 481.34910405 221.18899983 C477.19519241 226.70212358 473.12533827 232.26953263 469.09910405 237.87649983 C463.84868384 245.1860322 458.48376133 252.40231421 453.07078373 259.592076 C447.03811049 267.60852893 441.08571888 275.68253535 435.14549077 283.76761311 C432.23788784 287.72329595 429.32449563 291.67471076 426.41160405 295.62649983 C422.88587468 300.40997436 419.36121478 305.19421937 415.84129155 309.98196858 C410.3776952 317.41027327 404.89929724 324.82511391 399.34910405 332.18899983 C395.19519241 337.70212358 391.12533827 343.26953263 387.09910405 348.87649983 C381.84868384 356.1860322 376.48376133 363.40231421 371.07078373 370.592076 C365.03811049 378.60852893 359.08571888 386.68253535 353.14549077 394.76761311 C350.2378878 398.72329599 347.3244685 402.67469071 344.41160405 406.62649983 C340.81665634 411.50452525 337.22245081 416.38309328 333.63035405 421.26321858 C333.00773686 422.10884358 332.38511967 422.95446858 331.7436353 423.82571858 C330.56366014 425.42837141 329.38395169 427.03122066 328.2045728 428.63431233 C327.13174153 430.09121207 326.05631025 431.54620158 324.9780103 432.99905843 C323.90951404 434.45025486 322.85535132 435.91208781 321.8139478 437.38284749 C321.29961186 438.09876057 320.78527592 438.81467366 320.25535405 439.55228108 C319.80353764 440.19205891 319.35172123 440.83183675 318.88621342 441.49100178 C316.1117864 444.56813533 313.79092627 445.0957871 309.6967603 445.42728108 C308.28927787 445.44181846 306.88164693 445.44541525 305.47410405 445.43899983 C304.77092045 445.45511311 304.06773686 445.47122639 303.34324467 445.48782796 C297.75022951 445.49306977 294.69555121 444.21510941 290.63035405 440.49759358 C283.56229594 432.54602822 277.56538552 423.78724595 271.41160405 415.12649983 C263.90152818 404.59771296 256.23298261 394.2172501 248.36253178 383.95462483 C243.48219027 377.57512415 238.73995766 371.10997783 234.06175053 364.58133382 C230.58901449 359.73994704 227.06030644 354.94690826 223.47410405 350.18899983 C217.31811584 342.02168942 211.25190285 333.78994285 205.19383061 325.54983968 C202.26929664 321.57327472 199.34030572 317.59999576 196.41160405 313.62649983 C192.8858912 308.8430131 189.3612148 304.05878032 185.84129155 299.27103108 C180.39523509 291.8663052 174.93702638 284.47225618 169.41160405 277.12649983 C163.28131884 268.97661033 157.23450146 260.76627373 151.19383061 252.54983968 C148.26929659 248.57327465 145.34024971 244.60003712 142.41160405 240.62649983 C141.24491517 239.04318287 140.07824851 237.45984952 138.91160405 235.87649983 C138.33410405 235.09274983 137.75660405 234.30899983 137.16160405 233.50149983 C117.91160405 207.37649983 117.91160405 207.37649983 116.16111577 205.00076741 C114.99616556 203.41981 113.8311267 201.83891792 112.66599858 200.25809163 C109.72233425 196.26394155 106.78029059 192.26861553 103.84129155 188.27103108 C98.39523509 180.8663052 92.93702638 173.47225618 87.41160405 166.12649983 C81.28131884 157.97661033 75.23450146 149.76627373 69.19383061 141.54983968 C66.26929659 137.57327465 63.34024971 133.60003712 60.41160405 129.62649983 C59.24491517 128.04318287 58.07824851 126.45984952 56.91160405 124.87649983 C56.33410405 124.09274983 55.75660405 123.30899983 55.16160405 122.50149983 C35.91160405 96.37649983 35.91160405 96.37649983 34.16209233 94.00198811 C32.99402007 92.41686355 31.82572536 90.83190289 30.65720952 89.2471053 C27.76021264 85.31748352 24.86699265 81.38519631 21.98191655 77.44681233 C15.852177 69.08839316 9.65123689 60.7933743 3.34910405 52.56399983 C-1.80910414 45.8119703 -6.93891622 39.04133719 -11.96339595 32.18899983 C-12.50488277 31.46188802 -13.04636959 30.7347762 -13.60426509 29.98563069 C-18.09182286 23.81205932 -20.19249397 18.91628187 -19.05714595 11.23978108 C-18.40600231 8.30420849 -17.5456891 6.42125732 -15.58839595 4.12649983 C-10.5499888 1.0596433 -5.84069074 0.00220733 0 0 Z " fill="#FE7E32" transform="translate(551.5883959531784,1423.8735001683235)"/>
</svg>
