<svg width="346" height="39" viewBox="0 0 346 39" fill="none" xmlns="http://www.w3.org/2000/svg">
<path d="M37.6923 38.6777V0.00671387H46.0737V18.5121L53.4129 8.40533H63.8307L54.2182 21.5489L66.4826 38.6777H56.1597L46.0737 24.5858V38.6777H37.6923Z" fill="#6D83FF"/>
<path d="M92.5967 34.2415C89.6442 37.2001 86.0862 38.6777 81.9186 38.6777C77.751 38.6777 74.1922 37.1993 71.2406 34.2415C68.288 31.2838 66.8135 27.7168 66.8135 23.5415C66.8135 19.3662 68.2889 15.8001 71.2406 12.8415C74.1922 9.88377 77.751 8.40533 81.9186 8.40533C84.2548 8.40533 86.4952 8.92704 88.6424 9.97129V0.00671387H97.0238V23.5415C97.0238 27.7168 95.5475 31.2838 92.5967 34.2415ZM77.1599 28.3101C78.4698 29.6227 80.0561 30.2791 81.9186 30.2791C83.7812 30.2791 85.3674 29.6227 86.6774 28.3101C87.9874 26.9982 88.6424 25.4079 88.6424 23.5415C88.6424 21.6752 87.9866 20.0856 86.6774 18.773C85.3674 17.4611 83.7812 16.8039 81.9186 16.8039C80.0561 16.8039 78.469 17.4611 77.1599 18.773C75.8499 20.0856 75.1949 21.6752 75.1949 23.5415C75.1949 25.4079 75.8499 26.9982 77.1599 28.3101Z" fill="#6D83FF"/>
<path d="M104.269 12.866C107.205 9.92424 110.74 8.45337 114.876 8.45337C119.011 8.45337 122.538 9.92424 125.459 12.866C128.379 15.8077 129.839 19.3663 129.839 23.5424C129.839 24.2383 129.792 24.9182 129.697 25.583H108.484C108.925 26.9756 109.731 28.1057 110.899 28.9757C112.066 29.8458 113.392 30.2808 114.877 30.2808C115.981 30.2808 117.008 30.0284 117.954 29.5218H128.656C127.488 32.2743 125.656 34.4881 123.163 36.1652C120.669 37.8422 117.907 38.6803 114.877 38.6803C110.741 38.6803 107.206 37.2094 104.27 34.2677C101.334 31.3259 99.8663 27.7514 99.8663 23.5441C99.8663 19.3368 101.334 15.8103 104.27 12.8677L104.269 12.866ZM108.909 20.5527H120.795C120.226 19.4454 119.414 18.5526 118.356 17.8718C117.298 17.1919 116.138 16.852 114.876 16.852C113.614 16.852 112.405 17.1919 111.348 17.8718C110.29 18.5526 109.478 19.4462 108.909 20.5527Z" fill="#6D83FF"/>
<path d="M160.144 38.6778H151.763V21.8334C151.763 20.4736 151.273 19.2947 150.295 18.2984C149.316 17.3022 148.133 16.804 146.744 16.804C145.355 16.804 144.21 17.3022 143.216 18.2984C142.222 19.2947 141.725 20.4736 141.725 21.8334V38.6778H133.296V21.8334C133.296 18.1646 134.622 15.0092 137.274 12.367C139.926 9.72649 143.082 8.4054 146.744 8.4054C150.407 8.4054 153.594 9.71807 156.215 12.3434C158.835 14.9696 160.145 18.1318 160.145 21.8334V38.6778H160.144Z" fill="#6D83FF"/>
<path d="M167.839 12.8424C170.79 9.8847 174.349 8.40625 178.517 8.40625C182.684 8.40625 186.242 9.88554 189.195 12.8424C192.146 15.801 193.622 19.3671 193.622 23.5424V38.6786H185.24V37.0655C183.157 38.1409 180.915 38.6786 178.517 38.6786C174.35 38.6786 170.79 37.2002 167.839 34.2424C164.887 31.2847 163.411 27.7178 163.411 23.5424C163.411 19.3671 164.887 15.801 167.839 12.8424ZM183.275 18.773C181.965 17.4612 180.378 16.804 178.516 16.804C176.653 16.804 175.066 17.4612 173.757 18.773C172.447 20.0857 171.792 21.6752 171.792 23.5416C171.792 25.408 172.447 26.9503 173.757 28.263C175.067 29.5757 176.653 30.232 178.516 30.232C180.378 30.232 181.965 29.5757 183.275 28.263C184.584 26.9503 185.24 25.3768 185.24 23.5416C185.24 21.7064 184.584 20.0857 183.275 18.773Z" fill="#6D83FF"/>
<path d="M198.213 23.5416C198.213 19.3663 199.681 15.8001 202.617 12.8416C205.553 9.88384 209.104 8.4054 213.272 8.4054V16.804C211.408 16.804 209.83 17.4612 208.536 18.773C207.241 20.0857 206.595 21.6752 206.595 23.5416V38.6778H198.213V23.5416Z" fill="#6D83FF"/>
<path d="M0.0956807 38.2982L14.5366 0.276824C14.5979 0.114423 14.7549 0.00671387 14.9296 0.00671387H20.8665C21.0412 0.00671387 21.1982 0.114423 21.2595 0.276824L35.6786 38.4328C35.7819 38.7063 35.5778 38.9975 35.2848 38.9966L28.5904 38.9773C28.4174 38.9773 28.2629 38.8712 28.2008 38.7114L18.1458 13.0081C18.0055 12.6488 17.4925 12.6547 17.3598 13.0165L7.95812 38.7231C7.89766 38.8881 7.73979 38.9975 7.56344 38.9975H0.422336C0.107436 38.9975 -0.100818 38.6626 0.0503343 38.3874C0.0562124 38.3773 0.0620924 38.3672 0.0679706 38.3563C0.0788871 38.3369 0.0889619 38.3167 0.0973592 38.2957L0.0956807 38.2982Z" fill="#6C83FF"/>
<path d="M11.5287 29.7456H24.432C24.6974 29.7456 24.8595 29.9947 24.7167 30.1865L18.265 38.8662C18.1323 39.0446 17.8275 39.0446 17.6948 38.8662L11.2432 30.1865C11.1012 29.9955 11.2625 29.7456 11.5278 29.7456H11.5287Z" fill="url(#paint0_linear_6_222)"/>
<path d="M235.367 0H243.75V30.2783H257.248V38.6786H235.367V0Z" fill="#6D83FF"/>
<path d="M263.807 12.8373C266.758 9.87956 270.319 8.40027 274.486 8.40027C278.654 8.40027 282.214 9.87956 285.166 12.8373C288.118 15.7959 289.594 19.3628 289.594 23.539V38.6785H281.211V37.0646C279.127 38.1408 276.885 38.6785 274.486 38.6785C270.318 38.6785 266.758 37.2001 263.806 34.2415C260.853 31.2838 259.378 27.716 259.378 23.5398C259.378 19.3637 260.853 15.7967 263.806 12.8381L263.807 12.8373ZM279.246 18.7696C277.935 17.4569 276.349 16.7997 274.486 16.7997C272.624 16.7997 271.037 17.4569 269.727 18.7696C268.417 20.0823 267.761 21.6726 267.761 23.539C267.761 25.4053 268.416 26.9486 269.727 28.2613C271.037 29.5748 272.623 30.2311 274.486 30.2311C276.35 30.2311 277.935 29.5748 279.246 28.2613C280.556 26.9486 281.212 25.3742 281.212 23.539C281.212 21.7038 280.556 20.0823 279.246 18.7696Z" fill="#6D83FF"/>
<path d="M318.935 34.2407C315.982 37.1993 312.423 38.6777 308.255 38.6777C304.087 38.6777 300.527 37.1993 297.575 34.2407C294.623 31.283 293.147 27.7152 293.147 23.539V0H301.53V9.96625C303.677 8.922 305.919 8.4003 308.256 8.4003C312.423 8.4003 315.983 9.87959 318.936 12.8373C321.887 15.7959 323.363 19.3628 323.363 23.539C323.363 27.7152 321.887 31.283 318.936 34.2407H318.935ZM303.518 28.3084C304.844 29.6219 306.423 30.2783 308.254 30.2783C310.086 30.2783 311.664 29.6219 312.99 28.3084C314.316 26.9957 314.98 25.4062 314.98 23.539C314.98 21.6718 314.316 20.0823 312.99 18.7696C311.664 17.4569 310.085 16.7998 308.254 16.7998C306.423 16.7998 304.844 17.4569 303.518 18.7696C302.192 20.0831 301.529 21.6726 301.529 23.539C301.529 25.4054 302.192 26.9957 303.518 28.3084Z" fill="#6D83FF"/>
<path d="M336.291 38.6785C333.481 38.6785 331.176 37.6823 329.377 35.6888C327.577 33.6954 326.677 31.2754 326.677 28.4279H335.202C335.107 28.5549 335.06 28.7443 335.06 28.9975C335.06 29.3139 335.179 29.5992 335.415 29.8516C335.652 30.1049 335.944 30.2311 336.291 30.2311C336.639 30.2311 336.938 30.1125 337.191 29.8752C337.444 29.6379 337.57 29.3459 337.57 28.9975C337.57 28.3967 337.269 27.9853 336.67 27.764L332.881 26.2451C331.144 25.5492 329.739 24.4259 328.666 22.8759C327.592 21.326 327.055 19.5858 327.055 17.6555C327.055 15.0613 327.97 12.8701 329.802 11.0829C331.632 9.29559 333.843 8.40112 336.432 8.40112C338.863 8.40112 340.963 9.27204 342.731 11.0113C344.499 12.7515 345.431 14.84 345.526 17.276H337.048C336.889 16.9605 336.637 16.8014 336.29 16.8014C336.069 16.8014 335.88 16.8889 335.722 17.0623C335.563 17.2365 335.485 17.4342 335.485 17.6555C335.485 18.0039 335.627 18.2412 335.912 18.3674L340.032 20.0755C341.832 20.8345 343.276 22.0378 344.366 23.682C345.455 25.3271 346 27.1152 346 29.0447C346 31.734 345.053 34.0126 343.159 35.879C341.264 37.7462 338.974 38.6794 336.291 38.6794V38.6785Z" fill="#6D83FF"/>
<defs>
<linearGradient id="paint0_linear_6_222" x1="11.7915" y1="34.3728" x2="25.37" y2="34.3728" gradientUnits="userSpaceOnUse">
<stop stop-color="#FF7135"/>
<stop offset="1" stop-color="#FF8F2F"/>
</linearGradient>
</defs>
</svg>
