<svg width="187" height="34" viewBox="0 0 187 34" fill="none" xmlns="http://www.w3.org/2000/svg">
<path d="M32.5217 34V0H40.268V16.2702L47.0512 7.38417H56.6795L47.7954 18.9402L59.1304 34H49.5898L40.268 21.6102V34H32.5217Z" fill="#6D83FF"/>
<path d="M80.5782 30.0997C78.1222 32.7009 75.1625 34 71.6956 34C68.2288 34 65.2684 32.7001 62.8131 30.0997C60.3571 27.4992 59.1304 24.3631 59.1304 20.6921C59.1304 17.0211 60.3578 13.8857 62.8131 11.2845C65.2684 8.68403 68.2288 7.38417 71.6956 7.38417C73.639 7.38417 75.5027 7.84286 77.2888 8.76098V0H84.2609V20.6921C84.2609 24.3631 83.0328 27.4992 80.5782 30.0997ZM67.7371 24.8847C68.8268 26.0388 70.1463 26.6158 71.6956 26.6158C73.245 26.6158 74.5645 26.0388 75.6542 24.8847C76.744 23.7313 77.2888 22.333 77.2888 20.6921C77.2888 19.0512 76.7433 17.6536 75.6542 16.4995C74.5645 15.3461 73.245 14.7683 71.6956 14.7683C70.1463 14.7683 68.8261 15.3461 67.7371 16.4995C66.6474 17.6536 66.1025 19.0512 66.1025 20.6921C66.1025 22.333 66.6474 23.7313 67.7371 24.8847Z" fill="#6D83FF"/>
<path d="M91.126 11.2757C93.7322 8.68611 96.8707 7.3913 100.542 7.3913C104.214 7.3913 107.345 8.68611 109.938 11.2757C112.53 13.8653 113.826 16.9979 113.826 20.6742C113.826 21.2868 113.784 21.8853 113.7 22.4705H94.8676C95.2597 23.6964 95.9746 24.6912 97.0116 25.4571C98.0478 26.223 99.225 26.606 100.543 26.606C101.523 26.606 102.435 26.3838 103.275 25.9378H112.776C111.739 28.3608 110.113 30.3097 107.899 31.7859C105.685 33.2622 103.233 34 100.543 34C96.8715 34 93.733 32.7052 91.1267 30.1156C88.5205 27.526 87.2174 24.3793 87.2174 20.6757C87.2174 16.972 88.5205 13.8676 91.1267 11.2772L91.126 11.2757ZM95.2456 18.0423H105.797C105.292 17.0675 104.571 16.2816 103.632 15.6824C102.693 15.0838 101.663 14.7846 100.542 14.7846C99.4218 14.7846 98.349 15.0838 97.4104 15.6824C96.4711 16.2816 95.7503 17.0683 95.2456 18.0423Z" fill="#6D83FF"/>
<path d="M140.434 34H133.051V19.1942C133.051 17.999 132.619 16.9628 131.757 16.0871C130.895 15.2113 129.853 14.7735 128.629 14.7735C127.405 14.7735 126.397 15.2113 125.521 16.0871C124.645 16.9628 124.208 17.999 124.208 19.1942V34H116.783V19.1942C116.783 15.9695 117.951 13.1959 120.287 10.8735C122.623 8.55251 125.403 7.3913 128.63 7.3913C131.857 7.3913 134.664 8.54511 136.973 10.8527C139.281 13.1611 140.435 15.9406 140.435 19.1942V34H140.434Z" fill="#6D83FF"/>
<path d="M145.812 11.2906C148.412 8.69082 151.547 7.3913 155.217 7.3913C158.888 7.3913 162.022 8.69156 164.622 11.2906C167.222 13.8911 168.522 17.0256 168.522 20.6957V34H161.14V32.5821C159.305 33.5274 157.33 34 155.217 34C151.547 34 148.412 32.7005 145.812 30.1007C143.213 27.5009 141.913 24.3657 141.913 20.6957C141.913 17.0256 143.213 13.8911 145.812 11.2906ZM159.408 16.5035C158.254 15.3504 156.857 14.7727 155.217 14.7727C153.576 14.7727 152.178 15.3504 151.025 16.5035C149.871 17.6573 149.294 19.0544 149.294 20.6949C149.294 22.3354 149.871 23.6911 151.025 24.8449C152.179 25.9988 153.576 26.5757 155.217 26.5757C156.857 26.5757 158.254 25.9988 159.408 24.8449C160.561 23.6911 161.139 22.308 161.139 20.6949C161.139 19.0818 160.561 17.6573 159.408 16.5035Z" fill="#6D83FF"/>
<path d="M172.957 20.6957C172.957 17.0256 174.253 13.8911 176.847 11.2906C179.441 8.69082 182.579 7.3913 186.261 7.3913V14.7735C184.615 14.7735 183.22 15.3511 182.077 16.5042C180.933 17.658 180.362 19.0552 180.362 20.6957V34H172.957V20.6957Z" fill="#6D83FF"/>
<path d="M0.0831871 33.3902L12.6385 0.235537C12.6918 0.0939222 12.8283 0 12.9802 0H18.1419C18.2937 0 18.4302 0.0939222 18.4835 0.235537L31.0198 33.5077C31.1097 33.7461 30.9322 34 30.6774 33.9993L24.8572 33.9824C24.7068 33.9824 24.5725 33.8899 24.5184 33.7505L15.7764 11.3372C15.6545 11.0239 15.2084 11.0291 15.093 11.3446L6.91898 33.7608C6.86641 33.9046 6.72916 34 6.57584 34H0.367189C0.0934072 34 -0.0876536 33.708 0.0437618 33.468C0.0488724 33.4592 0.0539847 33.4504 0.0590953 33.4409C0.0685864 33.424 0.0773456 33.4064 0.0846465 33.3881L0.0831871 33.3902Z" fill="#6D83FF"/>
<path d="M10.6424 26.6087H21.8798C22.1109 26.6087 22.252 26.8076 22.1277 26.9609L16.509 33.8931C16.3934 34.0356 16.128 34.0356 16.0124 33.8931L10.3937 26.9609C10.2702 26.8083 10.4106 26.6087 10.6417 26.6087H10.6424Z" fill="#FF7D33"/>
</svg>
